<svg xmlns="http://www.w3.org/2000/svg" xmlns:xlink="http://www.w3.org/1999/xlink" width="1333" zoomAndPan="magnify" viewBox="0 0 999.75 599.999999" height="800" preserveAspectRatio="xMidYMid meet" version="1.0"><defs><g/><clipPath id="9a9c642557"><path d="M 19 198.0625 L 136 198.0625 L 136 401.9375 L 19 401.9375 Z M 19 198.0625 " clip-rule="nonzero"/></clipPath><clipPath id="ab923d6371"><path d="M 19.1875 401.664062 L 135.300781 198.339844 L 135.863281 282.171875 Z M 19.1875 401.664062 " clip-rule="nonzero"/></clipPath><clipPath id="83a76cb850"><path d="M 135 198.0625 L 254.601562 198.0625 L 254.601562 400 L 135 400 Z M 135 198.0625 " clip-rule="nonzero"/></clipPath><clipPath id="b3d90a7bd8"><path d="M 254.105469 399.558594 L 135.300781 198.339844 L 135.863281 282.171875 Z M 254.105469 399.558594 " clip-rule="nonzero"/></clipPath><clipPath id="baf854fb72"><path d="M 87.738281 353.476562 L 136.644531 353.476562 L 136.644531 401 L 87.738281 401 Z M 87.738281 353.476562 " clip-rule="nonzero"/></clipPath><clipPath id="eea4adf0ca"><path d="M 136.042969 400.964844 L 87.882812 400.964844 L 135.734375 353.894531 Z M 136.042969 400.964844 " clip-rule="nonzero"/></clipPath><clipPath id="f6c14f3cbe"><path d="M 135.6875 353.476562 L 185.554688 353.476562 L 185.554688 401 L 135.6875 401 Z M 135.6875 353.476562 " clip-rule="nonzero"/></clipPath><clipPath id="59fa16c5e5"><path d="M 185.109375 400.964844 L 136.042969 400.964844 L 135.734375 353.894531 Z M 185.109375 400.964844 " clip-rule="nonzero"/></clipPath><clipPath id="a764430aba"><path d="M 297.925781 216 L 405 216 L 405 329.789062 L 297.925781 329.789062 Z M 297.925781 216 " clip-rule="nonzero"/></clipPath><clipPath id="ef357dc854"><path d="M 371.726562 287.238281 L 354.964844 243.429688 C 353.757812 240.433594 352.550781 236.667969 351.34375 232.105469 L 349.578125 238.390625 C 348.972656 240.328125 348.382812 242.0625 347.808594 243.585938 L 331.132812 287.238281 Z M 404.847656 329.320312 L 391.9375 329.320312 C 390.464844 329.320312 389.257812 328.953125 388.316406 328.222656 C 387.375 327.492188 386.6875 326.539062 386.277344 325.386719 L 376.285156 299.195312 L 326.496094 299.195312 L 316.507812 325.386719 C 316.136719 326.378906 315.460938 327.289062 314.464844 328.105469 C 313.472656 328.921875 312.265625 329.320312 310.847656 329.320312 L 297.9375 329.320312 L 342.933594 216.371094 L 359.839844 216.371094 Z M 404.847656 329.320312 " clip-rule="nonzero"/></clipPath><clipPath id="c523ea22d5"><path d="M 396.105469 216 L 503.785156 216 L 503.785156 329.789062 L 396.105469 329.789062 Z M 396.105469 216 " clip-rule="nonzero"/></clipPath><clipPath id="451ee72a02"><path d="M 503.398438 216.371094 L 457.460938 329.320312 L 442.433594 329.320312 L 396.496094 216.371094 L 409.875 216.371094 C 411.34375 216.371094 412.539062 216.742188 413.449219 217.472656 C 414.359375 218.199219 415.058594 219.152344 415.535156 220.308594 L 446.054688 297.078125 C 446.78125 298.960938 447.511719 301.035156 448.210938 303.289062 L 450.136719 310.371094 C 450.667969 307.90625 451.238281 305.542969 451.875 303.289062 L 453.914062 297.078125 L 484.359375 220.308594 C 484.730469 219.257812 485.398438 218.339844 486.371094 217.554688 C 487.34375 216.773438 488.527344 216.371094 489.945312 216.371094 Z M 503.398438 216.371094 " clip-rule="nonzero"/></clipPath><clipPath id="0c7d08aeb0"><path d="M 495 216 L 601.964844 216 L 601.964844 329.789062 L 495 329.789062 Z M 495 216 " clip-rule="nonzero"/></clipPath><clipPath id="707d0a2fb6"><path d="M 568.835938 287.238281 L 552.085938 243.429688 C 550.878906 240.433594 549.671875 236.667969 548.464844 232.105469 L 546.699219 238.402344 C 546.09375 240.339844 545.503906 242.074219 544.929688 243.597656 L 528.253906 287.238281 Z M 601.945312 329.320312 L 589.058594 329.320312 C 587.585938 329.320312 586.378906 328.953125 585.4375 328.222656 C 584.496094 327.492188 583.808594 326.539062 583.394531 325.386719 L 573.40625 299.195312 L 523.609375 299.195312 L 513.617188 325.386719 C 513.25 326.378906 512.570312 327.289062 511.578125 328.105469 C 510.582031 328.921875 509.375 329.320312 507.957031 329.320312 L 495.058594 329.320312 L 540.050781 216.371094 L 556.960938 216.371094 Z M 601.945312 329.320312 " clip-rule="nonzero"/></clipPath><clipPath id="1024a17109"><path d="M 616.03125 216.371094 L 708.898438 216.371094 L 708.898438 329.328125 L 616.03125 329.328125 Z M 616.03125 216.371094 " clip-rule="nonzero"/></clipPath><clipPath id="c32bcd1509"><path d="M 708.539062 216.371094 L 708.539062 329.324219 L 700.042969 329.324219 C 698.730469 329.324219 697.640625 329.089844 696.785156 328.613281 C 695.925781 328.136719 695.039062 327.386719 694.148438 326.328125 L 630.347656 243.820312 C 630.457031 245.238281 630.550781 246.625 630.625 247.992188 L 630.742188 251.84375 L 630.742188 329.324219 L 616.03125 329.324219 L 616.03125 216.371094 L 624.6875 216.371094 C 626.148438 216.371094 627.25 216.539062 627.988281 216.878906 C 628.730469 217.21875 629.535156 217.992188 630.421875 219.195312 L 694.382812 301.800781 C 694.222656 300.277344 694.105469 298.792969 694.03125 297.355469 L 693.914062 293.300781 L 693.914062 216.371094 Z M 708.539062 216.371094 " clip-rule="nonzero"/></clipPath><clipPath id="173cd835ea"><path d="M 729 215.007812 L 824.832031 215.007812 L 824.832031 330.789062 L 729 330.789062 Z M 729 215.007812 " clip-rule="nonzero"/></clipPath><clipPath id="fe829a3f6f"><path d="M 815.351562 305.101562 C 816.292969 305.101562 817.105469 305.472656 817.785156 306.203125 L 824.386719 313.441406 C 819.773438 318.890625 814.144531 323.113281 807.519531 326.109375 C 800.894531 329.101562 792.90625 330.59375 783.574219 330.59375 C 775.394531 330.59375 767.984375 329.175781 761.351562 326.351562 C 754.714844 323.527344 749.054688 319.558594 744.367188 314.476562 C 739.679688 309.398438 736.039062 303.304688 733.46875 296.222656 C 730.894531 289.144531 729.617188 281.347656 729.617188 272.847656 C 729.617188 264.351562 730.960938 256.5625 733.667969 249.484375 C 736.378906 242.402344 740.15625 236.320312 745.035156 231.238281 C 749.910156 226.160156 755.742188 222.191406 762.535156 219.355469 C 769.328125 216.519531 776.832031 215.113281 785.066406 215.113281 C 793.085938 215.113281 800.21875 216.425781 806.460938 219.050781 C 812.707031 221.675781 818.132812 225.15625 822.746094 229.515625 L 817.246094 237.304688 C 816.875 237.886719 816.417969 238.351562 815.871094 238.722656 C 815.320312 239.09375 814.597656 239.273438 813.710938 239.273438 C 812.714844 239.273438 811.550781 238.773438 810.207031 237.78125 C 808.863281 236.785156 807.105469 235.675781 804.9375 234.4375 C 802.769531 233.199219 800.070312 232.085938 796.875 231.09375 C 793.679688 230.097656 789.691406 229.601562 784.917969 229.601562 C 779.308594 229.601562 774.164062 230.585938 769.5 232.550781 C 764.832031 234.519531 760.800781 237.335938 757.425781 241.027344 C 754.050781 244.722656 751.425781 249.261719 749.5625 254.636719 C 747.699219 260.011719 746.757812 266.085938 746.757812 272.847656 C 746.757812 279.714844 747.730469 285.832031 749.667969 291.175781 C 751.605469 296.519531 754.28125 301.058594 757.691406 304.785156 C 761.097656 308.507812 765.109375 311.34375 769.722656 313.28125 C 774.335938 315.21875 779.320312 316.191406 784.664062 316.191406 C 787.910156 316.191406 790.832031 315.992188 793.433594 315.597656 C 796.039062 315.207031 798.417969 314.617188 800.589844 313.832031 C 802.757812 313.050781 804.820312 312.035156 806.769531 310.804688 C 808.714844 309.578125 810.621094 308.097656 812.515625 306.363281 L 813.382812 305.695312 C 814.324219 305.21875 814.820312 305.101562 815.351562 305.101562 " clip-rule="nonzero"/></clipPath><clipPath id="21e7a5d0b0"><path d="M 772.316406 327.332031 L 798 327.332031 L 798 352 L 772.316406 352 Z M 772.316406 327.332031 " clip-rule="nonzero"/></clipPath><clipPath id="4218637796"><path d="M 788.9375 328.296875 L 787.636719 332.488281 C 796.199219 332.761719 798.058594 338.542969 797.214844 343.1875 C 794.886719 353.980469 778.238281 354.910156 772.558594 345.695312 L 777.488281 341.503906 C 780.1875 345.132812 787.445312 345.597656 788.558594 341.875 C 789.582031 338.339844 784.1875 336.105469 780.652344 338.617188 L 777.953125 336.476562 L 780.84375 327.820312 Z M 788.9375 328.296875 " clip-rule="nonzero"/></clipPath><clipPath id="aba735bbb6"><path d="M 830 215.007812 L 951 215.007812 L 951 336.546875 L 830 336.546875 Z M 830 215.007812 " clip-rule="nonzero"/></clipPath><clipPath id="3e9dbcd7e5"><path d="M 890.523438 228.128906 C 864.269531 228.128906 842.90625 249.492188 842.90625 275.746094 C 842.90625 302 864.269531 323.367188 890.523438 323.367188 C 916.777344 323.367188 938.144531 302 938.144531 275.746094 C 938.144531 249.492188 916.777344 228.128906 890.523438 228.128906 M 890.523438 336.066406 C 857.265625 336.066406 830.207031 309.007812 830.207031 275.746094 C 830.207031 242.488281 857.265625 215.429688 890.523438 215.429688 C 923.785156 215.429688 950.84375 242.488281 950.84375 275.746094 C 950.84375 309.007812 923.785156 336.066406 890.523438 336.066406 " clip-rule="nonzero"/></clipPath></defs><g clip-path="url(#9a9c642557)"><g clip-path="url(#ab923d6371)"><path fill="#bc9520" d="M 13.894531 193.050781 L 259.394531 193.050781 L 259.394531 406.949219 L 13.894531 406.949219 Z M 13.894531 193.050781 " fill-opacity="1" fill-rule="nonzero"/></g></g><g clip-path="url(#83a76cb850)"><g clip-path="url(#b3d90a7bd8)"><path fill="#cdad58" d="M 13.894531 193.050781 L 259.394531 193.050781 L 259.394531 406.949219 L 13.894531 406.949219 Z M 13.894531 193.050781 " fill-opacity="1" fill-rule="nonzero"/></g></g><g clip-path="url(#baf854fb72)"><g clip-path="url(#eea4adf0ca)"><path fill="#bc9520" d="M 13.894531 193.050781 L 259.394531 193.050781 L 259.394531 406.949219 L 13.894531 406.949219 Z M 13.894531 193.050781 " fill-opacity="1" fill-rule="nonzero"/></g></g><g clip-path="url(#f6c14f3cbe)"><g clip-path="url(#59fa16c5e5)"><path fill="#cdad58" d="M 13.894531 193.050781 L 259.394531 193.050781 L 259.394531 406.949219 L 13.894531 406.949219 Z M 13.894531 193.050781 " fill-opacity="1" fill-rule="nonzero"/></g></g><g clip-path="url(#a764430aba)"><g clip-path="url(#ef357dc854)"><path fill="#ffffff" d="M 292.644531 211.078125 L 607.246094 211.078125 L 607.246094 334.617188 L 292.644531 334.617188 Z M 292.644531 211.078125 " fill-opacity="1" fill-rule="nonzero"/></g></g><g clip-path="url(#c523ea22d5)"><g clip-path="url(#451ee72a02)"><path fill="#ffffff" d="M 292.644531 211.078125 L 607.246094 211.078125 L 607.246094 334.617188 L 292.644531 334.617188 Z M 292.644531 211.078125 " fill-opacity="1" fill-rule="nonzero"/></g></g><g clip-path="url(#0c7d08aeb0)"><g clip-path="url(#707d0a2fb6)"><path fill="#ffffff" d="M 292.644531 211.078125 L 607.246094 211.078125 L 607.246094 334.617188 L 292.644531 334.617188 Z M 292.644531 211.078125 " fill-opacity="1" fill-rule="nonzero"/></g></g><g clip-path="url(#1024a17109)"><g clip-path="url(#c32bcd1509)"><path fill="#ffffff" d="M 616.03125 216.371094 L 708.535156 216.371094 L 708.535156 329.328125 L 616.03125 329.328125 Z M 616.03125 216.371094 " fill-opacity="1" fill-rule="nonzero"/></g></g><g clip-path="url(#173cd835ea)"><g clip-path="url(#fe829a3f6f)"><path fill="#ffffff" d="M 724.324219 209.820312 L 956.128906 209.820312 L 956.128906 357.285156 L 724.324219 357.285156 Z M 724.324219 209.820312 " fill-opacity="1" fill-rule="nonzero"/></g></g><g clip-path="url(#21e7a5d0b0)"><g clip-path="url(#4218637796)"><path fill="#ffffff" d="M 724.324219 209.820312 L 956.128906 209.820312 L 956.128906 357.285156 L 724.324219 357.285156 Z M 724.324219 209.820312 " fill-opacity="1" fill-rule="nonzero"/></g></g><g clip-path="url(#aba735bbb6)"><g clip-path="url(#3e9dbcd7e5)"><path fill="#ffffff" d="M 724.324219 209.820312 L 956.128906 209.820312 L 956.128906 357.285156 L 724.324219 357.285156 Z M 724.324219 209.820312 " fill-opacity="1" fill-rule="nonzero"/></g></g><g fill="#ffffff" fill-opacity="1"><g transform="translate(293.150169, 386.760541)"><g><path d="M 21.75 0.421875 C 18.101562 0.421875 14.8125 -0.382812 11.875 -2 C 8.945312 -3.613281 6.648438 -5.832031 4.984375 -8.65625 C 3.328125 -11.488281 2.5 -14.671875 2.5 -18.203125 C 2.5 -21.742188 3.328125 -24.925781 4.984375 -27.75 C 6.648438 -30.570312 8.957031 -32.789062 11.90625 -34.40625 C 14.851562 -36.019531 18.148438 -36.828125 21.796875 -36.828125 C 24.640625 -36.828125 27.238281 -36.347656 29.59375 -35.390625 C 31.957031 -34.441406 33.96875 -33.03125 35.625 -31.15625 L 32.25 -27.875 C 29.507812 -30.757812 26.09375 -32.203125 22 -32.203125 C 19.300781 -32.203125 16.859375 -31.59375 14.671875 -30.375 C 12.484375 -29.164062 10.773438 -27.492188 9.546875 -25.359375 C 8.316406 -23.222656 7.703125 -20.835938 7.703125 -18.203125 C 7.703125 -15.566406 8.316406 -13.179688 9.546875 -11.046875 C 10.773438 -8.921875 12.484375 -7.25 14.671875 -6.03125 C 16.859375 -4.820312 19.300781 -4.21875 22 -4.21875 C 26.0625 -4.21875 29.476562 -5.671875 32.25 -8.578125 L 35.625 -5.3125 C 33.96875 -3.4375 31.945312 -2.007812 29.5625 -1.03125 C 27.1875 -0.0625 24.582031 0.421875 21.75 0.421875 Z M 21.75 0.421875 "/></g></g></g><g fill="#ffffff" fill-opacity="1"><g transform="translate(332.261119, 386.760541)"><g><path d="M 21.90625 0.421875 C 18.226562 0.421875 14.914062 -0.382812 11.96875 -2 C 9.019531 -3.613281 6.703125 -5.84375 5.015625 -8.6875 C 3.335938 -11.53125 2.5 -14.703125 2.5 -18.203125 C 2.5 -21.703125 3.335938 -24.875 5.015625 -27.71875 C 6.703125 -30.5625 9.019531 -32.789062 11.96875 -34.40625 C 14.914062 -36.019531 18.226562 -36.828125 21.90625 -36.828125 C 25.539062 -36.828125 28.832031 -36.019531 31.78125 -34.40625 C 34.726562 -32.789062 37.035156 -30.570312 38.703125 -27.75 C 40.367188 -24.925781 41.203125 -21.742188 41.203125 -18.203125 C 41.203125 -14.671875 40.367188 -11.488281 38.703125 -8.65625 C 37.035156 -5.832031 34.726562 -3.613281 31.78125 -2 C 28.832031 -0.382812 25.539062 0.421875 21.90625 0.421875 Z M 21.90625 -4.21875 C 24.570312 -4.21875 26.96875 -4.820312 29.09375 -6.03125 C 31.226562 -7.25 32.910156 -8.921875 34.140625 -11.046875 C 35.378906 -13.179688 36 -15.566406 36 -18.203125 C 36 -20.835938 35.378906 -23.222656 34.140625 -25.359375 C 32.910156 -27.492188 31.226562 -29.164062 29.09375 -30.375 C 26.96875 -31.59375 24.570312 -32.203125 21.90625 -32.203125 C 19.226562 -32.203125 16.804688 -31.59375 14.640625 -30.375 C 12.472656 -29.164062 10.773438 -27.492188 9.546875 -25.359375 C 8.316406 -23.222656 7.703125 -20.835938 7.703125 -18.203125 C 7.703125 -15.566406 8.316406 -13.179688 9.546875 -11.046875 C 10.773438 -8.921875 12.472656 -7.25 14.640625 -6.03125 C 16.804688 -4.820312 19.226562 -4.21875 21.90625 -4.21875 Z M 21.90625 -4.21875 "/></g></g></g><g fill="#ffffff" fill-opacity="1"><g transform="translate(377.457092, 386.760541)"><g><path d="M 36.78125 -36.40625 L 36.78125 0 L 32.515625 0 L 10.65625 -27.15625 L 10.65625 0 L 5.46875 0 L 5.46875 -36.40625 L 9.734375 -36.40625 L 31.578125 -9.265625 L 31.578125 -36.40625 Z M 36.78125 -36.40625 "/></g></g></g><g fill="#ffffff" fill-opacity="1"><g transform="translate(421.196819, 386.760541)"><g><path d="M 12.6875 -31.890625 L 0.203125 -31.890625 L 0.203125 -36.40625 L 30.328125 -36.40625 L 30.328125 -31.890625 L 17.84375 -31.890625 L 17.84375 0 L 12.6875 0 Z M 12.6875 -31.890625 "/></g></g></g><g fill="#ffffff" fill-opacity="1"><g transform="translate(453.234579, 386.760541)"><g><path d="M 28.65625 -9.109375 L 9.3125 -9.109375 L 5.3125 0 L -0.046875 0 L 16.4375 -36.40625 L 21.59375 -36.40625 L 38.125 0 L 32.671875 0 Z M 26.84375 -13.265625 L 18.984375 -31.109375 L 11.125 -13.265625 Z M 26.84375 -13.265625 "/></g></g></g><g fill="#ffffff" fill-opacity="1"><g transform="translate(492.813613, 386.760541)"><g><path d="M 29.96875 -18.875 C 32.082031 -18.289062 33.742188 -17.226562 34.953125 -15.6875 C 36.171875 -14.144531 36.78125 -12.191406 36.78125 -9.828125 C 36.78125 -6.671875 35.59375 -4.242188 33.21875 -2.546875 C 30.84375 -0.847656 27.378906 0 22.828125 0 L 5.46875 0 L 5.46875 -36.40625 L 21.796875 -36.40625 C 25.953125 -36.40625 29.164062 -35.570312 31.4375 -33.90625 C 33.707031 -32.25 34.84375 -29.945312 34.84375 -27 C 34.84375 -25.09375 34.398438 -23.441406 33.515625 -22.046875 C 32.640625 -20.660156 31.457031 -19.601562 29.96875 -18.875 Z M 10.65625 -32.203125 L 10.65625 -20.546875 L 21.328125 -20.546875 C 23.992188 -20.546875 26.046875 -21.039062 27.484375 -22.03125 C 28.929688 -23.019531 29.65625 -24.46875 29.65625 -26.375 C 29.65625 -28.28125 28.929688 -29.726562 27.484375 -30.71875 C 26.046875 -31.707031 23.992188 -32.203125 21.328125 -32.203125 Z M 22.625 -4.21875 C 25.570312 -4.21875 27.789062 -4.703125 29.28125 -5.671875 C 30.769531 -6.640625 31.515625 -8.164062 31.515625 -10.25 C 31.515625 -14.300781 28.550781 -16.328125 22.625 -16.328125 L 10.65625 -16.328125 L 10.65625 -4.21875 Z M 22.625 -4.21875 "/></g></g></g><g fill="#ffffff" fill-opacity="1"><g transform="translate(533.692862, 386.760541)"><g><path d="M 5.46875 -36.40625 L 10.65625 -36.40625 L 10.65625 0 L 5.46875 0 Z M 5.46875 -36.40625 "/></g></g></g><g fill="#ffffff" fill-opacity="1"><g transform="translate(551.324202, 386.760541)"><g><path d="M 5.46875 -36.40625 L 10.65625 -36.40625 L 10.65625 -4.53125 L 30.375 -4.53125 L 30.375 0 L 5.46875 0 Z M 5.46875 -36.40625 "/></g></g></g><g fill="#ffffff" fill-opacity="1"><g transform="translate(583.72604, 386.760541)"><g><path d="M 5.46875 -36.40625 L 10.65625 -36.40625 L 10.65625 0 L 5.46875 0 Z M 5.46875 -36.40625 "/></g></g></g><g fill="#ffffff" fill-opacity="1"><g transform="translate(601.35738, 386.760541)"><g><path d="M 5.46875 -36.40625 L 20.8125 -36.40625 C 24.65625 -36.40625 28.066406 -35.640625 31.046875 -34.109375 C 34.035156 -32.585938 36.351562 -30.445312 38 -27.6875 C 39.644531 -24.9375 40.46875 -21.773438 40.46875 -18.203125 C 40.46875 -14.628906 39.644531 -11.460938 38 -8.703125 C 36.351562 -5.953125 34.035156 -3.8125 31.046875 -2.28125 C 28.066406 -0.757812 24.65625 0 20.8125 0 L 5.46875 0 Z M 20.5 -4.53125 C 23.445312 -4.53125 26.035156 -5.097656 28.265625 -6.234375 C 30.503906 -7.378906 32.226562 -8.984375 33.4375 -11.046875 C 34.65625 -13.109375 35.265625 -15.492188 35.265625 -18.203125 C 35.265625 -20.910156 34.65625 -23.296875 33.4375 -25.359375 C 32.226562 -27.421875 30.503906 -29.023438 28.265625 -30.171875 C 26.035156 -31.316406 23.445312 -31.890625 20.5 -31.890625 L 10.65625 -31.890625 L 10.65625 -4.53125 Z M 20.5 -4.53125 "/></g></g></g><g fill="#ffffff" fill-opacity="1"><g transform="translate(645.825239, 386.760541)"><g><path d="M 28.65625 -9.109375 L 9.3125 -9.109375 L 5.3125 0 L -0.046875 0 L 16.4375 -36.40625 L 21.59375 -36.40625 L 38.125 0 L 32.671875 0 Z M 26.84375 -13.265625 L 18.984375 -31.109375 L 11.125 -13.265625 Z M 26.84375 -13.265625 "/></g></g></g><g fill="#ffffff" fill-opacity="1"><g transform="translate(685.404274, 386.760541)"><g><path d="M 5.46875 -36.40625 L 20.8125 -36.40625 C 24.65625 -36.40625 28.066406 -35.640625 31.046875 -34.109375 C 34.035156 -32.585938 36.351562 -30.445312 38 -27.6875 C 39.644531 -24.9375 40.46875 -21.773438 40.46875 -18.203125 C 40.46875 -14.628906 39.644531 -11.460938 38 -8.703125 C 36.351562 -5.953125 34.035156 -3.8125 31.046875 -2.28125 C 28.066406 -0.757812 24.65625 0 20.8125 0 L 5.46875 0 Z M 20.5 -4.53125 C 23.445312 -4.53125 26.035156 -5.097656 28.265625 -6.234375 C 30.503906 -7.378906 32.226562 -8.984375 33.4375 -11.046875 C 34.65625 -13.109375 35.265625 -15.492188 35.265625 -18.203125 C 35.265625 -20.910156 34.65625 -23.296875 33.4375 -25.359375 C 32.226562 -27.421875 30.503906 -29.023438 28.265625 -30.171875 C 26.035156 -31.316406 23.445312 -31.890625 20.5 -31.890625 L 10.65625 -31.890625 L 10.65625 -4.53125 Z M 20.5 -4.53125 "/></g></g></g><g fill="#ffffff" fill-opacity="1"><g transform="translate(729.872133, 386.760541)"><g><path d="M 31.890625 -4.53125 L 31.890625 0 L 5.46875 0 L 5.46875 -36.40625 L 31.15625 -36.40625 L 31.15625 -31.890625 L 10.65625 -31.890625 L 10.65625 -20.703125 L 28.921875 -20.703125 L 28.921875 -16.28125 L 10.65625 -16.28125 L 10.65625 -4.53125 Z M 31.890625 -4.53125 "/></g></g></g></svg>